<svg xmlns="http://www.w3.org/2000/svg" xmlns:xlink="http://www.w3.org/1999/xlink" viewBox="0 0 673.49 419.67"><defs><style>.cls-1,.cls-21{fill:none;}.cls-2{fill:#5ebcfc;}.cls-3{clip-path:url(#clip-path);}.cls-4{fill:#1e7ca5;}.cls-19,.cls-20,.cls-5{fill:#07578e;}.cls-11,.cls-6{fill:#f7991d;}.cls-7{fill:#2fa7d1;}.cls-8{fill:#86d5ea;}.cls-9{fill:#052335;}.cls-10{fill:#031d30;}.cls-11,.cls-12,.cls-13{fill-rule:evenodd;}.cls-12{fill:#ea791c;}.cls-13,.cls-14{fill:#002642;}.cls-15{fill:#2a92e8;}.cls-16,.cls-22{fill:#fff;}.cls-17{fill:#cff0f7;}.cls-18{fill:#cae1ea;}.cls-19{font-size:20.37px;}.cls-19,.cls-20,.cls-21{stroke:#07578e;}.cls-19,.cls-20{stroke-miterlimit:10;font-family:Quicksand-Bold, Quicksand Bold;font-weight:700;}.cls-20{font-size:16px;}.cls-21{stroke-linecap:round;stroke-linejoin:round;stroke-width:2.54px;}.cls-22{font-size:24px;font-family:Titillium-Black, Titillium Black;font-weight:800;}.cls-23{letter-spacing:-0.02em;}.cls-24{letter-spacing:0em;}</style><clipPath id="clip-path" transform="translate(93.6)"><rect class="cls-1" y="203.48" width="500" height="172.29" transform="translate(500 579.25) rotate(180)"/></clipPath></defs><g id="Layer_2" data-name="Layer 2"><g id="Objects"><path class="cls-2" d="M92.71,24.09a12.91,12.91,0,0,0,.15-2,13.37,13.37,0,0,0-19.33-12A17.7,17.7,0,0,0,39.9,17.88c0,.27,0,.55,0,.82q-.45,0-.9,0a13.3,13.3,0,0,0-.22,26.59H92.34a10.59,10.59,0,0,0,.37-21.17Z" transform="translate(93.6)"/><path class="cls-2" d="M295.64,96.09a14.3,14.3,0,0,0,.15-2,13.37,13.37,0,0,0-19.33-12,17.71,17.71,0,0,0-33.64,7.74c0,.27,0,.55,0,.82-.29,0-.59,0-.89,0a13.3,13.3,0,0,0-.22,26.59h53.53a10.59,10.59,0,0,0,.38-21.17Z" transform="translate(93.6)"/><path class="cls-2" d="M466.4,55.31a13.13,13.13,0,0,0,.15-2,13.37,13.37,0,0,0-19.33-12,17.7,17.7,0,0,0-33.63,7.74c0,.27,0,.55,0,.82l-.9,0a13.3,13.3,0,0,0-.22,26.59H466a10.58,10.58,0,0,0,.37-21.16Z" transform="translate(93.6)"/><path class="cls-2" d="M448,193.21a13,13,0,0,0,.15-2,13.37,13.37,0,0,0-19.33-12A17.7,17.7,0,0,0,395.23,187c0,.27,0,.55,0,.82-.29,0-.59,0-.89,0a13.3,13.3,0,0,0-.23,26.59h53.54a10.59,10.59,0,0,0,.37-21.17Z" transform="translate(93.6)"/><path class="cls-2" d="M120,144.27a13.13,13.13,0,0,0,.15-2,13.36,13.36,0,0,0-19.33-12,17.7,17.7,0,0,0-33.63,7.73c0,.28,0,.55,0,.82q-.45,0-.9,0a13.3,13.3,0,0,0-.22,26.59h53.54a10.58,10.58,0,0,0,.37-21.16Z" transform="translate(93.6)"/><g class="cls-3"><path class="cls-2" d="M-78.41,171.45a40.84,40.84,0,0,1-4.84,19.23c27.14,3,48.12,23.36,48.12,48,0,1.29-.06,2.56-.17,3.83a61.41,61.41,0,0,1,21.72-3.91c29.56,0,53.69,20.44,55.05,46.11a20.18,20.18,0,0,1,2.35-.14c7.18,0,13.42,3.55,16.56,8.77A27.19,27.19,0,0,1,78,287.08c11.15,0,20.61,6.32,24,15.11a28.58,28.58,0,0,1,7.53-1c14,0,25.34,10,25.34,22.26a19.16,19.16,0,0,1-.28,3.32,25.56,25.56,0,0,1,15.25,9.4l.82,0a21.42,21.42,0,0,1,4.64.52,25.43,25.43,0,0,1,10.57-6.82c1-11.48,11.93-20.52,25.26-20.52,11.74,0,21.61,7,24.5,16.52a20.61,20.61,0,0,1,9.32-2.18c8.81,0,16.18,5.33,18.19,12.52,2-7.19,9.38-12.52,18.18-12.52a20.65,20.65,0,0,1,9.33,2.18c2.88-9.51,12.75-16.52,24.49-16.52,13.33,0,24.25,9,25.26,20.52A25.47,25.47,0,0,1,331,336.67a21.28,21.28,0,0,1,4.64-.52l.81,0a25.62,25.62,0,0,1,15.25-9.4,20.19,20.19,0,0,1-.28-3.32c0-12.29,11.35-22.26,25.35-22.26a28.44,28.44,0,0,1,7.52,1c3.39-8.79,12.86-15.11,24-15.11a27.16,27.16,0,0,1,17.62,6.27c3.15-5.22,9.38-8.77,16.56-8.77a20.35,20.35,0,0,1,2.36.14c1.36-25.67,25.48-46.11,55-46.11a61.42,61.42,0,0,1,21.73,3.91c-.12-1.27-.17-2.54-.17-3.83,0-24.65,21-45,48.12-48a40.85,40.85,0,0,1-4.85-19.23c0-12.58,5.81-24,15.19-32.22V419.67H-93.6V139.23C-84.21,147.48-78.41,158.87-78.41,171.45Z" transform="translate(93.6)"/></g><rect class="cls-4" x="139.18" y="132.4" width="100.53" height="133.66"/><rect class="cls-5" x="139.18" y="132.4" width="100.53" height="11.83"/><rect class="cls-6" x="146.06" y="152.58" width="41.18" height="2.72"/><rect class="cls-7" x="146.06" y="158.63" width="15.53" height="2.72"/><rect class="cls-8" x="165.39" y="158.63" width="24.36" height="2.72"/><rect class="cls-8" x="175.59" y="164.69" width="23.06" height="2.72"/><rect class="cls-6" x="193.66" y="158.63" width="11.31" height="2.72"/><rect class="cls-8" x="208.66" y="158.63" width="15.53" height="2.72"/><rect class="cls-7" x="146.06" y="164.69" width="26.66" height="2.72"/><rect class="cls-7" x="146.06" y="220.55" width="15.53" height="2.72"/><rect class="cls-8" x="165.39" y="220.55" width="24.36" height="2.72"/><rect class="cls-8" x="175.59" y="226.61" width="9.86" height="2.72"/><rect class="cls-8" x="193.66" y="220.55" width="11.31" height="2.72"/><rect class="cls-6" x="146.06" y="226.61" width="26.66" height="2.72"/><rect class="cls-6" x="146.06" y="253.85" width="15.53" height="2.72"/><rect class="cls-8" x="165.39" y="253.85" width="24.36" height="2.72"/><rect class="cls-7" x="154.25" y="174.95" width="15.53" height="2.72"/><rect class="cls-6" x="173.58" y="174.95" width="14.68" height="2.72"/><rect class="cls-8" x="183.77" y="181" width="13.03" height="2.72"/><rect class="cls-6" x="200.22" y="181" width="21.52" height="2.72"/><rect class="cls-8" x="191.09" y="174.95" width="22.07" height="2.72"/><rect class="cls-7" x="154.25" y="186.89" width="15.53" height="2.72"/><rect class="cls-8" x="173.58" y="186.89" width="14.68" height="2.72"/><rect class="cls-8" x="191.09" y="186.89" width="22.07" height="2.72"/><rect class="cls-8" x="216.84" y="174.95" width="15.53" height="2.72"/><rect class="cls-7" x="154.25" y="181" width="26.66" height="2.72"/><rect class="cls-7" x="154.25" y="234.4" width="15.53" height="2.72"/><rect class="cls-8" x="173.58" y="234.4" width="17.51" height="2.72"/><rect class="cls-8" x="173.58" y="240.46" width="23.23" height="2.72"/><rect class="cls-8" x="200.22" y="240.46" width="9.82" height="2.72"/><rect class="cls-6" x="194.89" y="234.4" width="29.01" height="2.72"/><rect class="cls-7" x="154.25" y="246.35" width="15.53" height="2.72"/><rect class="cls-6" x="173.58" y="246.35" width="14.68" height="2.72"/><rect class="cls-8" x="191.09" y="246.35" width="22.07" height="2.72"/><rect class="cls-7" x="154.25" y="240.46" width="15.53" height="2.72"/><rect class="cls-8" x="183.77" y="211.57" width="13.03" height="2.72"/><rect class="cls-8" x="200.22" y="211.57" width="21.52" height="2.72"/><rect class="cls-7" x="154.25" y="204.73" width="15.53" height="2.72"/><rect class="cls-8" x="173.58" y="204.73" width="14.68" height="2.72"/><rect class="cls-6" x="191.09" y="204.73" width="22.07" height="2.72"/><rect class="cls-7" x="154.25" y="211.57" width="26.66" height="2.72"/><rect class="cls-8" x="193.6" y="195.75" width="13.03" height="2.72"/><rect class="cls-6" x="164.08" y="195.75" width="26.66" height="2.72"/><path class="cls-6" d="M56.79,138.4a1.92,1.92,0,1,1-1.92-1.91A1.92,1.92,0,0,1,56.79,138.4Z" transform="translate(93.6)"/><path class="cls-6" d="M64.36,138.4a1.92,1.92,0,1,1-1.92-1.91A1.92,1.92,0,0,1,64.36,138.4Z" transform="translate(93.6)"/><path class="cls-6" d="M71.92,138.4A1.92,1.92,0,1,1,70,136.49,1.92,1.92,0,0,1,71.92,138.4Z" transform="translate(93.6)"/><rect class="cls-4" x="447.49" y="106.46" width="100.53" height="107.05"/><rect class="cls-5" x="447.49" y="106.46" width="100.53" height="11.83"/><rect class="cls-6" x="454.37" y="126.63" width="41.18" height="2.72"/><rect class="cls-7" x="454.37" y="132.69" width="15.53" height="2.72"/><rect class="cls-8" x="473.7" y="132.69" width="24.36" height="2.72"/><rect class="cls-8" x="483.89" y="138.74" width="23.06" height="2.72"/><rect class="cls-6" x="501.97" y="132.69" width="11.31" height="2.72"/><rect class="cls-8" x="516.96" y="132.69" width="15.53" height="2.72"/><rect class="cls-7" x="454.37" y="138.74" width="26.66" height="2.72"/><rect class="cls-7" x="454.37" y="194.61" width="15.53" height="2.72"/><rect class="cls-8" x="473.7" y="194.61" width="24.36" height="2.72"/><rect class="cls-8" x="483.89" y="200.67" width="9.86" height="2.72"/><rect class="cls-8" x="501.97" y="194.61" width="11.31" height="2.72"/><rect class="cls-6" x="454.37" y="200.67" width="26.66" height="2.72"/><rect class="cls-7" x="462.56" y="149" width="15.53" height="2.72"/><rect class="cls-6" x="481.88" y="149" width="14.68" height="2.72"/><rect class="cls-8" x="492.08" y="155.06" width="13.03" height="2.72"/><rect class="cls-6" x="508.52" y="155.06" width="21.52" height="2.72"/><rect class="cls-8" x="499.39" y="149" width="22.07" height="2.72"/><rect class="cls-7" x="462.56" y="160.95" width="15.53" height="2.72"/><rect class="cls-8" x="481.88" y="160.95" width="14.68" height="2.72"/><rect class="cls-8" x="499.39" y="160.95" width="22.07" height="2.72"/><rect class="cls-8" x="525.15" y="149" width="15.53" height="2.72"/><rect class="cls-7" x="462.56" y="155.06" width="26.66" height="2.72"/><rect class="cls-8" x="492.08" y="185.63" width="13.03" height="2.72"/><rect class="cls-8" x="508.52" y="185.63" width="21.52" height="2.72"/><rect class="cls-7" x="462.56" y="178.79" width="15.53" height="2.72"/><rect class="cls-8" x="481.88" y="178.79" width="14.68" height="2.72"/><rect class="cls-6" x="499.39" y="178.79" width="22.07" height="2.72"/><rect class="cls-7" x="462.56" y="185.63" width="26.66" height="2.72"/><rect class="cls-8" x="501.91" y="169.81" width="13.03" height="2.72"/><rect class="cls-6" x="472.39" y="169.81" width="26.66" height="2.72"/><path class="cls-6" d="M365.09,112.46a1.92,1.92,0,1,1-1.92-1.92A1.92,1.92,0,0,1,365.09,112.46Z" transform="translate(93.6)"/><path class="cls-6" d="M372.66,112.46a1.92,1.92,0,1,1-1.92-1.92A1.92,1.92,0,0,1,372.66,112.46Z" transform="translate(93.6)"/><path class="cls-6" d="M380.23,112.46a1.92,1.92,0,1,1-1.92-1.92A1.92,1.92,0,0,1,380.23,112.46Z" transform="translate(93.6)"/><rect class="cls-5" x="285.02" y="92.4" width="77.37" height="11.83"/><path class="cls-6" d="M200.61,98.4a1.92,1.92,0,1,1-1.92-1.92A1.92,1.92,0,0,1,200.61,98.4Z" transform="translate(93.6)"/><path class="cls-6" d="M208.18,98.4a1.92,1.92,0,1,1-1.92-1.92A1.92,1.92,0,0,1,208.18,98.4Z" transform="translate(93.6)"/><path class="cls-6" d="M215.75,98.4a1.92,1.92,0,1,1-1.92-1.92A1.92,1.92,0,0,1,215.75,98.4Z" transform="translate(93.6)"/><rect class="cls-4" x="285.02" y="104.23" width="77.37" height="32.14"/><rect class="cls-6" x="290.37" y="112.96" width="18.61" height="2.72"/><rect class="cls-7" x="313.53" y="112.96" width="20.98" height="2.72"/><rect class="cls-8" x="313.53" y="119.02" width="29.85" height="2.72"/><rect class="cls-8" x="339.06" y="112.96" width="10.74" height="2.72"/><rect class="cls-7" x="290.37" y="124.91" width="18.61" height="2.72"/><rect class="cls-6" x="313.53" y="124.91" width="17.59" height="2.72"/><rect class="cls-8" x="334.51" y="124.91" width="21.93" height="2.72"/><rect class="cls-7" x="290.37" y="119.02" width="18.61" height="2.72"/><path class="cls-9" d="M426.31,252.33v-8h-5.16a15.35,15.35,0,0,0-1.41-3.39l3.66-3.66-5.68-5.67-3.66,3.66a14.86,14.86,0,0,0-3.39-1.4v-5.18h-8v5.18a15,15,0,0,0-3.38,1.4l-3.66-3.66-5.68,5.67,3.66,3.66a14.88,14.88,0,0,0-1.41,3.39H387v8h5.16a14.52,14.52,0,0,0,1.41,3.4l-3.65,3.64,5.68,5.68,3.64-3.64a15,15,0,0,0,3.4,1.41V268h8v-5.15a15,15,0,0,0,3.41-1.41l3.64,3.64,5.68-5.68-3.65-3.64a15.43,15.43,0,0,0,1.41-3.4Zm-19.65,3.24a7.24,7.24,0,1,1,7.24-7.24A7.24,7.24,0,0,1,406.66,255.57Z" transform="translate(93.6)"/><path class="cls-9" d="M431.34,289.7V285h-3a9.19,9.19,0,0,0-.83-2l2.15-2.15-3.34-3.33-2.15,2.15a9.19,9.19,0,0,0-2-.83v-3h-4.72v3a9.19,9.19,0,0,0-2,.83l-2.15-2.15L410,280.84,412.1,283a9.19,9.19,0,0,0-.83,2h-3v4.72h3a8.58,8.58,0,0,0,.82,2L410,293.84l3.34,3.34,2.14-2.14a8.2,8.2,0,0,0,2,.83v3h4.72v-3a8.2,8.2,0,0,0,2-.83l2.14,2.14,3.34-3.34-2.15-2.14a8.2,8.2,0,0,0,.83-2Zm-11.55,1.56a3.91,3.91,0,1,1,3.9-3.91A3.9,3.9,0,0,1,419.79,291.26Z" transform="translate(93.6)"/><path class="cls-10" d="M410.21,275.89v-10.7h-6.89a19.27,19.27,0,0,0-1.88-4.51l4.88-4.88-7.57-7.57-4.88,4.89a19.87,19.87,0,0,0-4.51-1.87v-6.91h-10.7v6.91a19.87,19.87,0,0,0-4.51,1.87l-4.88-4.89-7.56,7.57,4.87,4.88a20.16,20.16,0,0,0-1.88,4.51h-6.88v10.7h6.87a19.83,19.83,0,0,0,1.87,4.53l-4.85,4.86,7.56,7.57,4.85-4.85a20.12,20.12,0,0,0,4.54,1.88v6.86h10.7v-6.86A19.75,19.75,0,0,0,393.9,288l4.85,4.85,7.57-7.57-4.86-4.86a19.83,19.83,0,0,0,1.87-4.53Zm-26.2,6a11.29,11.29,0,1,1,11.28-11.29A11.28,11.28,0,0,1,384,281.85Z" transform="translate(93.6)"/><path class="cls-9" d="M302,174.18v-8H296.8a15.27,15.27,0,0,0-1.41-3.38l3.66-3.66-5.68-5.68-3.66,3.66a15.32,15.32,0,0,0-3.39-1.4v-5.18h-8v5.18a15.44,15.44,0,0,0-3.38,1.4l-3.66-3.66-5.68,5.68,3.66,3.66a14.81,14.81,0,0,0-1.41,3.38h-5.17v8h5.16a14.52,14.52,0,0,0,1.41,3.4l-3.65,3.65,5.68,5.68,3.64-3.65a14.55,14.55,0,0,0,3.4,1.42v5.14h8v-5.14a14.62,14.62,0,0,0,3.41-1.42l3.64,3.65,5.68-5.68-3.65-3.65a15.43,15.43,0,0,0,1.41-3.4Zm-19.65,3.25a7.25,7.25,0,1,1,7.24-7.24A7.24,7.24,0,0,1,282.31,177.43Z" transform="translate(93.6)"/><path class="cls-9" d="M307,211.56v-4.72h-3a9,9,0,0,0-.83-2l2.15-2.15-3.34-3.34-2.15,2.15a8.69,8.69,0,0,0-2-.82v-3.05h-4.72v3.05a8.69,8.69,0,0,0-2,.82l-2.15-2.15-3.34,3.34,2.15,2.15a9,9,0,0,0-.83,2h-3v4.72h3a9,9,0,0,0,.82,2l-2.14,2.14,3.34,3.33,2.14-2.13a9.06,9.06,0,0,0,2,.83v3h4.72v-3a9.06,9.06,0,0,0,2-.83l2.14,2.13,3.34-3.33-2.15-2.14a8.54,8.54,0,0,0,.83-2Zm-11.55,1.55a3.91,3.91,0,1,1,3.9-3.9A3.9,3.9,0,0,1,295.44,213.11Z" transform="translate(93.6)"/><path class="cls-10" d="M285.86,197.75v-10.7H279a19.34,19.34,0,0,0-1.88-4.52l4.88-4.88-7.57-7.56L269.52,175A19.87,19.87,0,0,0,265,173.1v-6.9h-10.7v6.9A19.87,19.87,0,0,0,249.8,175l-4.88-4.88-7.56,7.56,4.87,4.88a20.24,20.24,0,0,0-1.88,4.52h-6.88v10.7h6.87a20.21,20.21,0,0,0,1.87,4.53l-4.85,4.86,7.56,7.56,4.85-4.85a20.12,20.12,0,0,0,4.54,1.88v6.86H265v-6.86a19.75,19.75,0,0,0,4.54-1.88l4.85,4.85,7.57-7.56-4.86-4.86a20.72,20.72,0,0,0,1.88-4.53Zm-26.2,5.95a11.28,11.28,0,1,1,11.28-11.28A11.28,11.28,0,0,1,259.66,203.7Z" transform="translate(93.6)"/><path class="cls-9" d="M135.85,327.36v-8h-5.16a14.91,14.91,0,0,0-1.42-3.39l3.67-3.66-5.68-5.67-3.66,3.66a14.86,14.86,0,0,0-3.39-1.4v-5.18h-8v5.18a14.78,14.78,0,0,0-3.38,1.4l-3.66-3.66-5.68,5.67,3.66,3.66a14.88,14.88,0,0,0-1.41,3.39H96.54v8h5.16a14.52,14.52,0,0,0,1.41,3.4l-3.65,3.64,5.68,5.68,3.64-3.64a15,15,0,0,0,3.4,1.42V343h8v-5.14a15.06,15.06,0,0,0,3.41-1.42l3.64,3.64,5.68-5.68-3.65-3.64a14.93,14.93,0,0,0,1.4-3.4Zm-19.65,3.25a7.25,7.25,0,1,1,7.24-7.25A7.26,7.26,0,0,1,116.2,330.61Z" transform="translate(93.6)"/><path class="cls-9" d="M140.88,364.73V360h-3a9.19,9.19,0,0,0-.83-2l2.15-2.15-3.34-3.33-2.15,2.15a8.69,8.69,0,0,0-2-.82v-3.05H127v3.05a8.69,8.69,0,0,0-2,.82l-2.15-2.15-3.34,3.33,2.15,2.15a9.19,9.19,0,0,0-.83,2h-3v4.72h3a8.58,8.58,0,0,0,.82,2l-2.14,2.15,3.34,3.33,2.14-2.14a8.2,8.2,0,0,0,2,.83v3h4.72v-3a8.2,8.2,0,0,0,2-.83l2.14,2.14,3.34-3.33L137,366.73a8.2,8.2,0,0,0,.83-2Zm-11.55,1.56a3.91,3.91,0,1,1,3.9-3.91A3.9,3.9,0,0,1,129.33,366.29Z" transform="translate(93.6)"/><path class="cls-10" d="M119.75,350.92v-10.7h-6.89a19.71,19.71,0,0,0-1.88-4.51l4.88-4.88-7.57-7.56-4.88,4.88a19.87,19.87,0,0,0-4.51-1.87v-6.9H88.2v6.9a19.87,19.87,0,0,0-4.51,1.87l-4.88-4.88-7.56,7.56,4.87,4.88a20.16,20.16,0,0,0-1.88,4.51H67.35v10.7h6.88a20.09,20.09,0,0,0,1.87,4.54l-4.85,4.85,7.56,7.57L83.66,363a20.12,20.12,0,0,0,4.54,1.88v6.86H98.9v-6.86a19.75,19.75,0,0,0,4.54-1.88l4.85,4.85,7.57-7.57L111,355.46a20.09,20.09,0,0,0,1.87-4.54Zm-26.2,6a11.29,11.29,0,1,1,11.28-11.28A11.28,11.28,0,0,1,93.55,356.88Z" transform="translate(93.6)"/><path class="cls-11" d="M13.58,342.55l74.79-.88-14.3-27.12,7.52-.22-15-26.42,4.37-.22L51,251.77,31.47,287.46h5.2L21.85,314.1l6.9.23s-15.27,28.44-15.17,28.22Z" transform="translate(93.6)"/><path class="cls-12" d="M62,329.25l3.57-.11L58.38,316.6l2.08-.11L51,299.43l-9.28,16.95h2.47l-7,12.66,3.28.1s-6.13,11.43-7.08,13.18l35.28-.42Z" transform="translate(93.6)"/><path class="cls-13" d="M50.24,280.61l-.11,10-5.58-6.26-1,1L50,292.51l.14-.12L50,304.63l-7.39-7.58-1,1L50,306.63l-.14,13.11-10.68-9.81-1,1,11.61,10.66-.14,14.24-11.7-11-1,1,12.63,11.89-.36,35.84h6s-.82-17-1.81-36.43l12-11.3-.95-1L53.32,335.33c-.26-4.68-.51-9.5-.73-14.21l11-10.15-.93-1-10.24,9.36c-.22-4.45-.45-8.8-.68-12.91L59.94,298l-1-1-7.22,7.44c-.25-4.46-.48-8.52-.68-12l6.46-7.16-1.07-1-5.5,6.15c-.34-5.84-.59-9.59-.68-9.9Z" transform="translate(93.6)"/><path class="cls-14" d="M61.37,375.77c-1.63-4.17-5.3-7.07-9.57-7.07s-7.95,2.9-9.57,7.07Z" transform="translate(93.6)"/><path class="cls-11" d="M411.63,342.55l74.79-.88-14.3-27.12,7.51-.22-15-26.42,4.38-.22-19.92-35.92-19.55,35.69h5.21L419.9,314.1l6.89.23s-15.27,28.44-15.16,28.22Z" transform="translate(93.6)"/><path class="cls-12" d="M460,329.25l3.57-.11-7.14-12.54,2.08-.11L449,299.43l-9.28,16.95h2.47l-7,12.66,3.27.1-7.07,13.18,35.28-.42Z" transform="translate(93.6)"/><path class="cls-13" d="M448.29,280.61l-.11,10-5.58-6.26-1.05,1,6.46,7.19.14-.12L448,304.63l-7.39-7.58-1,1,8.37,8.62-.14,13.11-10.69-9.81-1,1,11.62,10.66-.14,14.24-11.7-11-1,1,12.63,11.89-.37,35.84h5.95s-.81-17-1.8-36.43l12-11.3-1-1-11.11,10.46c-.25-4.68-.5-9.5-.73-14.21L461.68,311l-.93-1-10.23,9.36c-.23-4.45-.45-8.8-.68-12.91L458,298l-1-1-7.21,7.44c-.26-4.46-.48-8.52-.68-12l6.46-7.16-1.07-1-5.5,6.15c-.34-5.84-.59-9.59-.68-9.9Z" transform="translate(93.6)"/><path class="cls-14" d="M459.42,375.77c-1.63-4.17-5.3-7.07-9.58-7.07s-7.94,2.9-9.57,7.07Z" transform="translate(93.6)"/><path class="cls-11" d="M393.83,350.52l56.85-.66-10.87-20.62,5.71-.17L434.09,309l3.33-.17-15.14-27.29-14.85,27.12h3.95L400.12,328.9l5.24.17s-11.61,21.62-11.53,21.45Z" transform="translate(93.6)"/><path class="cls-12" d="M430.59,340.41l2.71-.08-5.42-9.53,1.58-.08-7.19-13-7.06,12.88h1.88l-5.35,9.62,2.49.08-5.38,10,26.81-.31Z" transform="translate(93.6)"/><path class="cls-13" d="M421.7,303.45l-.09,7.6-4.24-4.76-.79.73,4.9,5.47.11-.09-.09,9.3-5.61-5.76-.77.73,6.36,6.55-.1,10-8.13-7.45-.72.79,8.82,8.1-.1,10.82-8.9-8.35-.73.77,9.61,9L421,374.13h4.52s-.62-12.92-1.37-27.68l9.1-8.59-.73-.77L424,345c-.19-3.55-.38-7.22-.56-10.8l8.4-7.71-.7-.79-7.78,7.11c-.17-3.38-.35-6.68-.52-9.81l6.2-6.36-.77-.73-5.49,5.65c-.19-3.38-.36-6.47-.51-9.12l4.9-5.45-.81-.73L422.21,311c-.26-4.44-.45-7.29-.51-7.52Z" transform="translate(93.6)"/><path class="cls-14" d="M430.15,375.77a7.61,7.61,0,0,0-14.55,0Z" transform="translate(93.6)"/><path class="cls-15" d="M399.61,403.57a6.59,6.59,0,0,1-6.59,6.59H103.41a6.6,6.6,0,0,1-6.59-6.59h0a6.6,6.6,0,0,1,6.59-6.6H393a6.6,6.6,0,0,1,6.59,6.6Z" transform="translate(93.6)"/><rect class="cls-16" x="209.82" y="363.14" width="79.93" height="23.5" transform="translate(593.17 749.77) rotate(180)"/><rect class="cls-17" x="209.82" y="378.77" width="79.93" height="7.87" transform="translate(593.17 765.41) rotate(180)"/><path class="cls-16" d="M209.11,386.64h81.35a17.11,17.11,0,0,1,17.28,16.93H191.84A17.1,17.1,0,0,1,209.11,386.64Z" transform="translate(93.6)"/><rect class="cls-17" x="116.16" y="190.49" width="267.68" height="172.64" rx="4.71" transform="translate(593.6 553.63) rotate(180)"/><rect class="cls-10" x="118.94" y="192.82" width="262.11" height="167.98" rx="4.71" transform="translate(593.6 553.63) rotate(180)"/><rect class="cls-5" x="130.2" y="206.66" width="239.61" height="140.3" rx="4.11" transform="translate(593.6 553.63) rotate(180)"/><rect class="cls-6" x="237.05" y="219.83" width="88.63" height="3.71"/><rect class="cls-7" x="237.05" y="228.1" width="33.41" height="3.72"/><rect class="cls-8" x="278.64" y="228.1" width="52.41" height="3.72"/><rect class="cls-8" x="300.58" y="236.37" width="49.62" height="3.71"/><rect class="cls-8" x="339.48" y="228.1" width="24.35" height="3.72"/><rect class="cls-8" x="371.75" y="228.1" width="33.41" height="3.72"/><rect class="cls-7" x="237.05" y="236.37" width="57.36" height="3.71"/><rect class="cls-7" x="237.05" y="312.7" width="33.41" height="3.71"/><rect class="cls-8" x="278.64" y="312.7" width="52.41" height="3.71"/><rect class="cls-6" x="300.58" y="320.98" width="21.23" height="3.71"/><rect class="cls-8" x="339.48" y="312.7" width="24.35" height="3.71"/><rect class="cls-6" x="237.05" y="320.98" width="57.36" height="3.71"/><rect class="cls-8" x="254.67" y="250.39" width="33.42" height="3.71"/><rect class="cls-6" x="296.26" y="250.39" width="31.59" height="3.71"/><rect class="cls-8" x="318.2" y="258.67" width="28.04" height="3.72"/><rect class="cls-8" x="353.59" y="258.67" width="46.32" height="3.72"/><rect class="cls-6" x="333.94" y="250.39" width="47.5" height="3.71"/><rect class="cls-7" x="254.67" y="266.72" width="33.42" height="3.71"/><rect class="cls-8" x="296.26" y="266.72" width="31.59" height="3.71"/><rect class="cls-8" x="333.94" y="266.72" width="47.5" height="3.71"/><rect class="cls-8" x="389.37" y="250.39" width="33.41" height="3.71"/><rect class="cls-7" x="254.67" y="258.67" width="57.37" height="3.72"/><rect class="cls-7" x="254.67" y="331.62" width="33.42" height="3.71"/><rect class="cls-8" x="296.26" y="331.62" width="37.68" height="3.71"/><rect class="cls-6" x="342.12" y="331.62" width="62.43" height="3.71"/><rect class="cls-8" x="318.2" y="300.43" width="28.04" height="3.71"/><rect class="cls-8" x="353.59" y="300.43" width="46.32" height="3.71"/><rect class="cls-7" x="254.67" y="291.09" width="33.42" height="3.71"/><rect class="cls-8" x="296.26" y="291.09" width="31.59" height="3.71"/><rect class="cls-6" x="333.94" y="291.09" width="47.5" height="3.71"/><rect class="cls-6" x="254.67" y="300.43" width="57.37" height="3.71"/><rect class="cls-8" x="339.36" y="278.82" width="28.04" height="3.72"/><rect class="cls-6" x="275.83" y="278.82" width="57.36" height="3.72"/><path class="cls-16" d="M208.71,194.05a11.53,11.53,0,0,0,.13-1.77A11.84,11.84,0,0,0,197,180.44a11.7,11.7,0,0,0-5.28,1.24,15.7,15.7,0,0,0-29.81,6.86c0,.24,0,.48,0,.72-.27,0-.53,0-.8,0a11.79,11.79,0,0,0-.19,23.57h47.44a9.38,9.38,0,0,0,.33-18.75Z" transform="translate(93.6)"/><path class="cls-18" d="M200.08,200.48a7.36,7.36,0,0,0,.09-1.16,7.78,7.78,0,0,0-7.78-7.78,7.62,7.62,0,0,0-3.47.82,10.31,10.31,0,0,0-19.59,4.5c0,.16,0,.32,0,.48l-.52,0a7.74,7.74,0,0,0-.13,15.48h31.17a6.16,6.16,0,0,0,.22-12.32Z" transform="translate(93.6)"/><text class="cls-19" transform="translate(261.54 205.38)">&lt;\&gt;</text><path class="cls-16" d="M272.15,334.7a11.53,11.53,0,0,0,.13-1.77,11.85,11.85,0,0,0-17.13-10.6,15.69,15.69,0,0,0-29.8,6.86c0,.24,0,.48,0,.72-.26,0-.52,0-.79,0a11.79,11.79,0,0,0-.2,23.57h47.45a9.38,9.38,0,0,0,.33-18.75Z" transform="translate(93.6)"/><path class="cls-18" d="M263.52,341.13a7.36,7.36,0,0,0,.09-1.16,7.78,7.78,0,0,0-7.79-7.78,7.68,7.68,0,0,0-3.47.82,10.31,10.31,0,0,0-19.58,4.5c0,.16,0,.32,0,.48l-.52,0a7.74,7.74,0,0,0-.13,15.48H263.3a6.16,6.16,0,0,0,.22-12.32Z" transform="translate(93.6)"/><text class="cls-20" transform="translate(326.42 346.03)">C++</text><path class="cls-16" d="M387.27,300a12.94,12.94,0,0,0,.13-1.77,11.85,11.85,0,0,0-17.13-10.6,15.7,15.7,0,0,0-29.81,6.86c0,.24,0,.48,0,.72-.26,0-.53,0-.8,0a11.79,11.79,0,0,0-.19,23.57h47.44a9.38,9.38,0,0,0,.34-18.75Z" transform="translate(93.6)"/><path class="cls-18" d="M378.63,306.45a7.36,7.36,0,0,0,.09-1.16,7.78,7.78,0,0,0-7.78-7.78,7.62,7.62,0,0,0-3.47.82,10.31,10.31,0,0,0-19.59,4.5c0,.16,0,.32,0,.48l-.52,0a7.74,7.74,0,0,0-.13,15.48h31.17a6.16,6.16,0,0,0,.21-12.32Z" transform="translate(93.6)"/><text class="cls-20" transform="translate(436.31 311.35)">HTML</text><path class="cls-16" d="M159.48,279.36a11.53,11.53,0,0,0,.14-1.77A11.85,11.85,0,0,0,142.49,267a15.7,15.7,0,0,0-29.81,6.86c0,.24,0,.48,0,.73-.26,0-.53,0-.8,0a11.78,11.78,0,0,0-.19,23.56h47.44a9.38,9.38,0,0,0,.33-18.76Z" transform="translate(93.6)"/><path class="cls-18" d="M150.85,285.79a7.36,7.36,0,0,0,.09-1.16,7.77,7.77,0,0,0-11.25-7,10.31,10.31,0,0,0-19.59,4.5c0,.16,0,.32,0,.48l-.52,0a7.74,7.74,0,0,0-.13,15.48h31.16a6.17,6.17,0,0,0,.22-12.33Z" transform="translate(93.6)"/><text class="cls-20" transform="translate(214.2 290.69)">PHP</text><path class="cls-16" d="M354.49,222.9a12.68,12.68,0,0,0,.13-1.76,11.85,11.85,0,0,0-11.85-11.84,11.7,11.7,0,0,0-5.28,1.24,15.69,15.69,0,0,0-29.81,6.85c0,.25,0,.49,0,.73-.26,0-.53,0-.79,0a11.79,11.79,0,0,0-.2,23.57h47.44a9.38,9.38,0,0,0,.34-18.76Z" transform="translate(93.6)"/><path class="cls-18" d="M345.86,229.34a8.92,8.92,0,0,0,.08-1.16,7.78,7.78,0,0,0-7.78-7.78,7.62,7.62,0,0,0-3.47.82,10.31,10.31,0,0,0-19.58,4.5c0,.16,0,.32,0,.48l-.52,0a7.74,7.74,0,0,0-.13,15.48h31.17a6.16,6.16,0,0,0,.22-12.32Z" transform="translate(93.6)"/><text class="cls-19" transform="translate(406.21 234.24)"><tspan xml:space="preserve">{   }</tspan></text><line class="cls-21" x1="421.5" y1="224.5" x2="428.01" y2="224.5"/><line class="cls-21" x1="417.84" y1="229.32" x2="428.01" y2="229.32"/><line class="cls-21" x1="417.84" y1="234.13" x2="428.01" y2="234.13"/><text class="cls-22" transform="translate(214.86 20.09)"><tspan class="cls-23">C<tspan class="cls-24" x="13.42" y="0">OMPUTER ENGINEERING</tspan></tspan><tspan class="cls-23" x="80.65" y="28.8">C</tspan><tspan x="94.07" y="28.8">ONCEPT</tspan></text></g></g></svg>